%FSTAX23Y23*%
%MOIN*%
%SFA1B1*%

%IPPOS*%
%ADD33R,0.044000X0.058000*%
%ADD34R,0.044000X0.044000*%
%ADD35O,0.088000X0.032000*%
%ADD36O,0.032000X0.088000*%
%ADD37R,0.068000X0.068000*%
%ADD38R,0.068000X0.068000*%
%ADD39C,0.224535*%
%ADD40C,0.106425*%
%ADD41R,0.106425X0.106425*%
%ADD42O,0.086740X0.126110*%
%ADD43C,0.067055*%
%ADD44R,0.067055X0.067055*%
%ADD45C,0.133984*%
%ADD46R,0.133984X0.133984*%
%ADD47C,0.078866*%
%ADD48R,0.074929X0.074929*%
%ADD49C,0.074929*%
%ADD50C,0.058000*%
%LN+-10v_stepdir_colorlight_soldermask_top-1*%
%LPD*%
G54D33*
X01035Y01594D03*
G54D34*
X01072Y01514D03*
X00997D03*
G54D35*
X0093Y00534D03*
Y00484D03*
Y00434D03*
X0071D03*
Y00534D03*
X0098Y01954D03*
Y01904D03*
Y01854D03*
Y01804D03*
X012D03*
Y01854D03*
Y01904D03*
Y01954D03*
G54D36*
X00805Y01269D03*
X00755D03*
X00705D03*
X00655D03*
X00605D03*
X00555D03*
X00505D03*
X00455D03*
Y01049D03*
X00505D03*
X00555D03*
X00605D03*
X00655D03*
X00705D03*
X00755D03*
X00805D03*
G54D37*
X00595Y00419D03*
X0046D03*
X01132Y02139D03*
X01267D03*
X01522D03*
X01387D03*
X01015D03*
X0088D03*
X00595Y01859D03*
X0046D03*
X0071Y01639D03*
X00845D03*
X0071Y01759D03*
X00845D03*
X0046Y00534D03*
X00595D03*
X01105Y01404D03*
X0097D03*
G54D38*
X00455Y02129D03*
Y01994D03*
X0057Y02129D03*
Y01994D03*
X00725Y01879D03*
Y02014D03*
X0133Y01814D03*
Y01949D03*
X0145D03*
Y01814D03*
X0071Y01384D03*
Y01519D03*
X0058Y01584D03*
Y01719D03*
X0059Y00754D03*
Y00889D03*
X0085Y01879D03*
Y02014D03*
X0156Y01679D03*
Y01544D03*
X01435D03*
Y01679D03*
X0084Y01384D03*
Y01519D03*
X00455Y01584D03*
Y01719D03*
Y00754D03*
Y00889D03*
X0117Y00419D03*
Y00554D03*
X0093Y01224D03*
Y01089D03*
X01045Y00554D03*
Y00419D03*
G54D39*
X01515Y00118D03*
X00137D03*
X01515Y0276D03*
X00137D03*
G54D40*
X0024Y0074D03*
Y00878D03*
Y01016D03*
Y01153D03*
Y01291D03*
Y01429D03*
Y01567D03*
Y01929D03*
Y00381D03*
G54D41*
X0024Y01705D03*
Y02067D03*
Y00519D03*
G54D42*
X0132Y02494D03*
X0142D03*
X0122D03*
X0102D03*
X0092D03*
G54D43*
X0066Y02354D03*
G54D44*
X0066Y02454D03*
G54D45*
X00305Y02314D03*
G54D46*
X00305Y02514D03*
G54D47*
X01315Y01449D03*
X01215Y01549D03*
X01315Y01649D03*
G54D48*
X0139Y01129D03*
G54D49*
X0149Y01129D03*
X0139Y01029D03*
X0149D03*
X0139Y00929D03*
X0149D03*
X0139Y00829D03*
X0149D03*
X0139Y00729D03*
X0149D03*
X0139Y00629D03*
X0149D03*
X0139Y00529D03*
X0149D03*
X0139Y00429D03*
X0149D03*
G54D50*
X0102Y01184D03*
X01105Y01469D03*
X01107Y00554D03*
X00865Y01049D03*
X0061Y01369D03*
X01505Y01894D03*
X01323Y02143D03*
X0084Y01324D03*
M02*