%FSTAX23Y23*%
%MOIN*%
%SFA1B1*%

%IPPOS*%
%ADD31C,0.005000*%
%LN+-10v_stepdir_colorlight_drillmap_1-1*%
%LPD*%
G54D31*
X01452Y00118D02*
X01578D01*
X01515Y00055D02*
Y00181D01*
X00074Y00118D02*
X002D01*
X00137Y00055D02*
Y00181D01*
X0022Y0074D02*
X00259D01*
X0024Y0072D02*
Y0076D01*
X0022Y00878D02*
X00259D01*
X0024Y00858D02*
Y00897D01*
X0022Y01016D02*
X00259D01*
X0024Y00996D02*
Y01035D01*
X0022Y01153D02*
X00259D01*
X0024Y01134D02*
Y01173D01*
X0022Y01291D02*
X00259D01*
X0024Y01271D02*
Y01311D01*
X0022Y01429D02*
X00259D01*
X0024Y01409D02*
Y01449D01*
X0022Y01567D02*
X00259D01*
X0024Y01547D02*
Y01586D01*
X0022Y01705D02*
X00259D01*
X0024Y01685D02*
Y01724D01*
X0022Y02067D02*
X00259D01*
X0024Y02047D02*
Y02086D01*
X0022Y01929D02*
X00259D01*
X0024Y01909D02*
Y01949D01*
X0022Y00519D02*
X00259D01*
X0024Y00499D02*
Y00539D01*
X0022Y00381D02*
X00259D01*
X0024Y00361D02*
Y00401D01*
X01305Y02494D02*
X01335D01*
X0132Y02479D02*
Y02509D01*
X01405Y02494D02*
X01435D01*
X0142Y02479D02*
Y02509D01*
X01205Y02494D02*
X01235D01*
X0122Y02479D02*
Y02509D01*
X01005Y02494D02*
X01035D01*
X0102Y02479D02*
Y02509D01*
X00905Y02494D02*
X00935D01*
X0092Y02479D02*
Y02509D01*
X00648Y02354D02*
X00671D01*
X0066Y02342D02*
Y02366D01*
X00648Y02454D02*
X00671D01*
X0066Y02442D02*
Y02466D01*
X00285Y02314D02*
X00324D01*
X00305Y02294D02*
Y02334D01*
X00285Y02514D02*
X00324D01*
X00305Y02494D02*
Y02534D01*
X013Y01449D02*
X0133D01*
X01315Y01434D02*
Y01464D01*
X012Y01549D02*
X0123D01*
X01215Y01534D02*
Y01564D01*
X013Y01649D02*
X0133D01*
X01315Y01634D02*
Y01664D01*
X0137Y01129D02*
X01409D01*
X0139Y0111D02*
Y01148D01*
X0147Y01129D02*
X01509D01*
X0149Y0111D02*
Y01148D01*
X0137Y01029D02*
X01409D01*
X0139Y0101D02*
Y01048D01*
X0147Y01029D02*
X01509D01*
X0149Y0101D02*
Y01048D01*
X0137Y00929D02*
X01409D01*
X0139Y0091D02*
Y00948D01*
X0147Y00929D02*
X01509D01*
X0149Y0091D02*
Y00948D01*
X0137Y00829D02*
X01409D01*
X0139Y0081D02*
Y00848D01*
X0147Y00829D02*
X01509D01*
X0149Y0081D02*
Y00848D01*
X0137Y00729D02*
X01409D01*
X0139Y0071D02*
Y00748D01*
X0147Y00729D02*
X01509D01*
X0149Y0071D02*
Y00748D01*
X0137Y00629D02*
X01409D01*
X0139Y0061D02*
Y00648D01*
X0147Y00629D02*
X01509D01*
X0149Y0061D02*
Y00648D01*
X0137Y00529D02*
X01409D01*
X0139Y0051D02*
Y00548D01*
X0147Y00529D02*
X01509D01*
X0149Y0051D02*
Y00548D01*
X0137Y00429D02*
X01409D01*
X0139Y0041D02*
Y00448D01*
X0147Y00429D02*
X01509D01*
X0149Y0041D02*
Y00448D01*
X01452Y0276D02*
X01578D01*
X01515Y02697D02*
Y02823D01*
X00074Y0276D02*
X002D01*
X00137Y02697D02*
Y02823D01*
X01006Y01184D02*
X01033D01*
X0102Y0117D02*
Y01198D01*
X01091Y01469D02*
X01118D01*
X01105Y01455D02*
Y01483D01*
X01093Y00554D02*
X01121D01*
X01107Y0054D02*
Y00568D01*
X00851Y01049D02*
X00878D01*
X00865Y01035D02*
Y01063D01*
X00596Y01369D02*
X00623D01*
X0061Y01355D02*
Y01383D01*
X01491Y01894D02*
X01518D01*
X01505Y0188D02*
Y01908D01*
X01309Y02143D02*
X01337D01*
X01323Y02129D02*
Y02156D01*
X00826Y01324D02*
X00853D01*
X0084Y0131D02*
Y01338D01*
M02*