%FSTAX23Y23*%
%MOIN*%
%SFA1B1*%

%IPPOS*%
%ADD52C,0.125984*%
%ADD53C,0.125984*%
%ADD54C,0.039370*%
%ADD55C,0.030000*%
%ADD56C,0.023622*%
%ADD57C,0.030000*%
%ADD58C,0.038583*%
%ADD59C,0.125984*%
%ADD60C,0.125984*%
%ADD61C,0.027559*%
%LN+-10v_stepdir_colorlight_pth_drill-1*%
%LPD*%
G54D52*
X01515Y00118D03*
G54D53*
X00137Y00118D03*
G54D54*
X0024Y0074D03*
Y00878D03*
Y01016D03*
Y01153D03*
Y01291D03*
Y01429D03*
Y01567D03*
Y01705D03*
Y02067D03*
Y01929D03*
Y00519D03*
Y00381D03*
X00305Y02314D03*
Y02514D03*
G54D55*
X0132Y02494D03*
X0142D03*
X0122D03*
X0102D03*
X0092D03*
G54D56*
X0066Y02354D03*
Y02454D03*
G54D57*
X01315Y01449D03*
X01215Y01549D03*
X01315Y01649D03*
G54D58*
X0139Y01129D03*
X0149D03*
X0139Y01029D03*
X0149D03*
X0139Y00929D03*
X0149D03*
X0139Y00829D03*
X0149D03*
X0139Y00729D03*
X0149D03*
X0139Y00629D03*
X0149D03*
X0139Y00529D03*
X0149D03*
X0139Y00429D03*
X0149D03*
G54D59*
X01515Y0276D03*
G54D60*
X00137Y0276D03*
G54D61*
X0102Y01184D03*
X01105Y01469D03*
X01107Y00554D03*
X00865Y01049D03*
X0061Y01369D03*
X01505Y01894D03*
X01323Y02143D03*
X0084Y01324D03*
M02*