%FSTAX23Y23*%
%MOIN*%
%SFA1B1*%

%IPPOS*%
%ADD16C,0.020000*%
%ADD17C,0.039370*%
%ADD18C,0.216535*%
%ADD19C,0.098425*%
%ADD20R,0.098425X0.098425*%
%ADD21O,0.078740X0.118110*%
%ADD22C,0.059055*%
%ADD23R,0.059055X0.059055*%
%ADD24C,0.125984*%
%ADD25R,0.125984X0.125984*%
%ADD26C,0.070866*%
%ADD27R,0.066929X0.066929*%
%ADD28C,0.066929*%
%ADD29C,0.050000*%
%LN+-10v_stepdir_colorlight_copper_signal_bot-1*%
%LPD*%
G54D16*
X01107Y00554D02*
Y00806D01*
X00865Y01049D02*
X01107Y00806D01*
X00865Y01049D02*
X00905Y01089D01*
Y01404*
X00604Y01705D02*
X00905Y01404D01*
X0024Y01705D02*
X00604D01*
X0061Y01304D02*
Y01369D01*
Y01304D02*
X00865Y01049D01*
X0024Y01429D02*
X00735D01*
X0084Y01324*
X00655Y02354D02*
X0066D01*
G54D17*
X00155Y01899D02*
X00185Y01929D01*
X0024*
X00155Y00825D02*
Y01899D01*
Y01974D02*
X00188Y0194D01*
X00155Y02244D02*
X00218Y02307D01*
X00155Y01974D02*
Y02244D01*
X00218Y02307D02*
X00298D01*
X00305Y02314*
X00615*
X01312Y02386D02*
Y02486D01*
X0128Y02354D02*
X01312Y02386D01*
X01055Y02354D02*
X0128D01*
X0102Y02389D02*
X01055Y02354D01*
X0102Y02389D02*
Y02494D01*
X01312Y02486D02*
X0132Y02494D01*
X00985Y02354D02*
X0102Y02389D01*
X01105Y01924D02*
X01323Y02143D01*
X01105Y01469D02*
Y01924D01*
Y01269D02*
Y01469D01*
X0102Y01184D02*
X01105Y01269D01*
X00615Y02314D02*
X00655Y02354D01*
X00305Y02514D02*
X006D01*
X0066Y02454*
X00155Y00825D02*
X0024Y0074D01*
X01323Y02143D02*
X01505Y01961D01*
Y01894D02*
Y01961D01*
X0066Y02354D02*
X00985D01*
X007Y02494D02*
X0092D01*
X0066Y02454D02*
X007Y02494D01*
G54D18*
X01515Y00118D03*
X00137D03*
X01515Y0276D03*
X00137D03*
G54D19*
X0024Y0074D03*
Y00878D03*
Y01016D03*
Y01153D03*
Y01291D03*
Y01429D03*
Y01567D03*
Y01929D03*
Y00381D03*
G54D20*
X0024Y01705D03*
Y02067D03*
Y00519D03*
G54D21*
X0132Y02494D03*
X0142D03*
X0122D03*
X0102D03*
X0092D03*
G54D22*
X0066Y02354D03*
G54D23*
X0066Y02454D03*
G54D24*
X00305Y02314D03*
G54D25*
X00305Y02514D03*
G54D26*
X01315Y01449D03*
X01215Y01549D03*
X01315Y01649D03*
G54D27*
X0139Y01129D03*
G54D28*
X0149Y01129D03*
X0139Y01029D03*
X0149D03*
X0139Y00929D03*
X0149D03*
X0139Y00829D03*
X0149D03*
X0139Y00729D03*
X0149D03*
X0139Y00629D03*
X0149D03*
X0139Y00529D03*
X0149D03*
X0139Y00429D03*
X0149D03*
G54D29*
X0102Y01184D03*
X01105Y01469D03*
X01107Y00554D03*
X00865Y01049D03*
X0061Y01369D03*
X01505Y01894D03*
X01323Y02143D03*
X0084Y01324D03*
M02*